<?xml version="1.0" encoding="UTF-8"?>
<svg enable-background="new 0 0 504.131 504.131" version="1.1" viewBox="0 0 504.13 504.13" xml:space="preserve" xmlns="http://www.w3.org/2000/svg">
<circle cx="252.06" cy="252.07" r="252.06" fill="#0EE565"/>
<path d="m73.834 73.823c98.43-98.43 258.03-98.43 356.46 0 98.43 98.446 98.446 258.03 0 356.48" fill="#00C67F"/>
<path d="m415.58 264.93-143.81-66.308c0.016-3.096-0.386-49.924-0.386-52.909 0-52.649-4.072-40.582-8.869-57.801-0.567-3.552-1.646-6.357-2.962-8.381-2.473-5.829-5.096-8.476-7.42-8.476s-4.923 2.647-7.428 8.476c-1.3 2.032-2.292 4.829-2.844 8.381-4.789 17.219-8.68 5.152-8.68 57.817 0 2.97 0.016 49.798 0.055 52.894l-144.67 66.307c-2.544 1.182-5.853 3.718-5.853 6.538v15.541c0 2.08 2.584 4.064 4.135 5.427 1.339 1.142 3.836 1.772 5.577 1.772 0.315 0 1.079-0.032 1.402-0.079l141.45-19.448c2.371 48.971 6.333 97.997 10.303 126.6l-29.46 17.447c-1.694 0.969-2.694 2.788-2.694 4.726l0.031 4.12c0 1.631 0.725 3.167 1.969 4.214 0.985 0.827 2.253 1.276 3.529 1.276 0.323 0 0.638-0.032 0.961-0.079l29.798-5.23c0.89-0.158 1.662-0.583 2.339-1.095 0.662 0.504 1.449 0.937 2.339 1.095l29.783 5.23c0.339 0.047 0.63 0.079 0.969 0.079 1.26 0 2.528-0.449 3.537-1.276 1.237-1.048 1.953-2.584 1.953-4.214l0.016-4.12c0-1.938-1.032-3.742-2.725-4.726l-29.491-17.463c3.938-28.585 7.814-77.627 10.185-126.58l141.25 19.448c0.315 0.047 0.646 0.079 0.985 0.079 1.717 0 5.088-0.63 6.396-1.772 1.583-1.371 4.167-3.356 4.167-5.427v-15.541c1e-3 -2.82-3.307-5.356-5.843-6.538z" fill="#363D3B"/>
<path d="m415.58 264.93-143.81-66.308c0.016-3.096-0.386-49.924-0.386-52.909 0-52.649-4.072-40.582-8.869-57.801-0.567-3.552-1.646-6.357-2.962-8.381-2.473-5.829-5.096-8.476-7.42-8.476s-4.923 2.647-7.428 8.476c-1.3 2.032-2.292 4.829-2.844 8.381-4.789 17.219-8.68 5.152-8.68 57.817 0 2.97 0.016 49.798 0.055 52.894l-23.631 10.973 66.064 66.064 134.23 18.479c0.315 0.047 0.646 0.079 0.985 0.079 1.717 0 5.088-0.63 6.396-1.772 1.56-1.379 4.143-3.363 4.143-5.435v-15.543c-1e-3 -2.82-3.309-5.356-5.845-6.538z" fill="#1D2321"/>
</svg>
